<?xml version="1.0" encoding="utf-8"?>
<svg xmlns="http://www.w3.org/2000/svg" xmlns:xlink="http://www.w3.org/1999/xlink" style="margin: auto; background: rgb(241, 242, 243); display: block; z-index: 1; position: relative; shape-rendering: auto;" width="1403" height="773" preserveAspectRatio="xMidYMid" viewBox="0 0 1403 773">
<g transform=""><path d="M-100 449.45C-72.37 450.52 -73.28 450.67 -48.29 450.67S-21.9 450.61 3.42 450.61S29.35 458.08 55.13 458.08S81.71 448.73 106.84 448.73S132.97 455.58 158.55 455.58S185.74 451.97 210.26 451.97S237.25 459.79 261.97 459.79S288.44 461.71 313.68 461.71S339.76 464.07 365.39 464.07S392.18 450.93 417.1 450.93S444.72 456.09 468.81 456.09S496.06 463.38 520.52 463.38S547.73 464.58 572.23 464.58S598.12 460.67 623.94 460.67S651.71 456.57 675.65 456.57S701.9 454.14 727.35 454.14S754.07 448.82 779.06 448.82S806.77 460.73 830.77 460.73S858.39 450.82 882.48 450.82S909.35 464.77 934.19 464.77S960.17 451.06 985.9 451.06S1012.92 455.91 1037.61 455.91S1064.63 456.62 1089.32 456.62S1116.84 458.53 1141.03 458.53S1167.86 461.81 1192.74 461.81S1219.16 461.97 1244.45 461.97S1270.93 452.18 1296.16 452.18S1323.65 465.93 1347.87 465.93S1374.48 467.14 1399.58 467.14S1426.23 454.2 1451.29 454.2S1478.59 453.01 1503 453.01S1529.9 464.86 1554.71 464.86L1503 773 L-100 773 Z" fill="#009bff" stroke-width="0">
  <animate attributeName="d" dur="25s" repeatCount="indefinite" values="M-100 449.45C-72.37 450.52 -73.28 450.67 -48.29 450.67S-21.9 450.61 3.42 450.61S29.35 458.08 55.13 458.08S81.71 448.73 106.84 448.73S132.97 455.58 158.55 455.58S185.74 451.97 210.26 451.97S237.25 459.79 261.97 459.79S288.44 461.71 313.68 461.71S339.76 464.07 365.39 464.07S392.18 450.93 417.1 450.93S444.72 456.09 468.81 456.09S496.06 463.38 520.52 463.38S547.73 464.58 572.23 464.58S598.12 460.67 623.94 460.67S651.71 456.57 675.65 456.57S701.9 454.14 727.35 454.14S754.07 448.82 779.06 448.82S806.77 460.73 830.77 460.73S858.39 450.82 882.48 450.82S909.35 464.77 934.19 464.77S960.17 451.06 985.9 451.06S1012.92 455.91 1037.61 455.91S1064.63 456.62 1089.32 456.62S1116.84 458.53 1141.03 458.53S1167.86 461.81 1192.74 461.81S1219.16 461.97 1244.45 461.97S1270.93 452.18 1296.16 452.18S1323.65 465.93 1347.87 465.93S1374.48 467.14 1399.58 467.14S1426.23 454.2 1451.29 454.2S1478.59 453.01 1503 453.01S1529.9 464.86 1554.71 464.86L1503 773 L-100 773 Z;M-100 452.52C-72.29 457.79 -73.06 460.58 -48.29 460.58S-20.69 466.63 3.42 466.63S30.32 457.91 55.13 457.91S81.8 448.88 106.84 448.88S134.12 457.72 158.55 457.72S185.89 458.06 210.26 458.06S236.27 449.04 261.97 449.04S287.94 448.81 313.68 448.81S339.83 467.15 365.39 467.15S392.22 462.13 417.1 462.13S442.97 462.24 468.81 462.24S494.82 461.23 520.52 461.23S546.48 449.63 572.23 449.63S598.48 451.77 623.94 451.77S650.4 448.93 675.65 448.93S701.94 452.53 727.35 452.53S753.76 452.52 779.06 452.52S805.91 449.62 830.77 449.62S857.78 455.46 882.48 455.46S909.71 463.01 934.19 463.01S961.75 449 985.9 449S1013.16 466.28 1037.61 466.28S1064.02 457.05 1089.32 457.05S1116.24 449.6 1141.03 449.6S1167.22 464.92 1192.74 464.92S1219.9 453.43 1244.45 453.43S1272.02 466.55 1296.16 466.55S1322.42 454.89 1347.87 454.89S1374.33 465.53 1399.58 465.53S1427.09 454.17 1451.29 454.17S1477.48 449.97 1503 449.97S1530.25 448.63 1554.71 448.63L1503 773 L-100 773 Z;M-100 449.45C-72.37 450.52 -73.28 450.67 -48.29 450.67S-21.9 450.61 3.42 450.61S29.35 458.08 55.13 458.08S81.71 448.73 106.84 448.73S132.97 455.58 158.55 455.58S185.74 451.97 210.26 451.97S237.25 459.79 261.97 459.79S288.44 461.71 313.68 461.71S339.76 464.07 365.39 464.07S392.18 450.93 417.1 450.93S444.72 456.09 468.81 456.09S496.06 463.38 520.52 463.38S547.73 464.58 572.23 464.58S598.12 460.67 623.94 460.67S651.71 456.57 675.65 456.57S701.9 454.14 727.35 454.14S754.07 448.82 779.06 448.82S806.77 460.73 830.77 460.73S858.39 450.82 882.48 450.82S909.35 464.77 934.19 464.77S960.17 451.06 985.9 451.06S1012.92 455.91 1037.61 455.91S1064.63 456.62 1089.32 456.62S1116.84 458.53 1141.03 458.53S1167.86 461.81 1192.74 461.81S1219.16 461.97 1244.45 461.97S1270.93 452.18 1296.16 452.18S1323.65 465.93 1347.87 465.93S1374.48 467.14 1399.58 467.14S1426.23 454.2 1451.29 454.2S1478.59 453.01 1503 453.01S1529.9 464.86 1554.71 464.86L1503 773 L-100 773 Z"></animate>
  <animateTransform attributeName="transform" type="translate" dur="25s" begin="0s" repeatCount="indefinite" values="0;10;0" calcMode="spline" keySplines="0.3 0 0.7 1;0.3 0 0.7 1"></animateTransform>
</path><path d="M-100 473.62C-71.93 481.07 -72.25 477.24 -46.92 477.24S-19.12 486.63 6.16 486.63S33.72 486.51 59.24 486.51S86.78 486.4 112.32 486.4S139.69 487.88 165.4 487.88S192.05 483.73 218.48 483.73S246.62 485.81 271.56 485.81S299.45 473.76 324.64 473.76S351.3 472.74 377.72 472.74S405.91 483.5 430.79 483.5S458.5 487.91 483.87 487.91S512.24 476.6 536.95 476.6S564.75 476.94 590.03 476.94S617.82 472.55 643.11 472.55S670.82 488.28 696.19 488.28S724.61 471.78 749.27 471.78S777.47 477.62 802.35 477.62S829.44 477.34 855.43 477.34S883.59 482.81 908.51 482.81S936.25 484.22 961.59 484.22S989.72 477.86 1014.67 477.86S1042.48 478.27 1067.75 478.27S1095.38 488.27 1120.83 488.27S1148.85 476.18 1173.91 476.18S1202.26 472.46 1226.99 472.46S1253.68 478.43 1280.07 478.43S1308.5 473.91 1333.15 473.91S1359.75 470.95 1386.23 470.95S1414.58 474.45 1439.3 474.45S1467.01 484.42 1492.38 484.42S1519.91 473.19 1545.46 473.19L1503 773 L-100 773 Z" fill="#39a4ff" stroke-width="0">
  <animate attributeName="d" dur="22.5s" repeatCount="indefinite" values="M-100 473.62C-71.93 481.07 -72.25 477.24 -46.92 477.24S-19.12 486.63 6.16 486.63S33.72 486.51 59.24 486.51S86.78 486.4 112.32 486.4S139.69 487.88 165.4 487.88S192.05 483.73 218.48 483.73S246.62 485.81 271.56 485.81S299.45 473.76 324.64 473.76S351.3 472.74 377.72 472.74S405.91 483.5 430.79 483.5S458.5 487.91 483.87 487.91S512.24 476.6 536.95 476.6S564.75 476.94 590.03 476.94S617.82 472.55 643.11 472.55S670.82 488.28 696.19 488.28S724.61 471.78 749.27 471.78S777.47 477.62 802.35 477.62S829.44 477.34 855.43 477.34S883.59 482.81 908.51 482.81S936.25 484.22 961.59 484.22S989.72 477.86 1014.67 477.86S1042.48 478.27 1067.75 478.27S1095.38 488.27 1120.83 488.27S1148.85 476.18 1173.91 476.18S1202.26 472.46 1226.99 472.46S1253.68 478.43 1280.07 478.43S1308.5 473.91 1333.15 473.91S1359.75 470.95 1386.23 470.95S1414.58 474.45 1439.3 474.45S1467.01 484.42 1492.38 484.42S1519.91 473.19 1545.46 473.19L1503 773 L-100 773 Z;M-100 471.75C-73.1 481.06 -72.85 483.12 -46.92 483.12S-18.9 467.96 6.16 467.96S33.74 484.58 59.24 484.58S87.01 487.61 112.32 487.61S139.71 472.51 165.4 472.51S192.89 485.2 218.48 485.2S246.04 472.09 271.56 472.09S298.67 480.43 324.64 480.43S353.1 477.64 377.72 477.64S405.05 473.79 430.79 473.79S458.17 474.49 483.87 474.49S512.18 473.96 536.95 473.96S564.52 479.07 590.03 479.07S617.41 484 643.11 484S670.45 471.71 696.19 471.71S724.24 483.23 749.27 483.23S777.51 484.28 802.35 484.28S830.27 470.67 855.43 470.67S882.66 487.27 908.51 487.27S935.35 478.67 961.59 478.67S988.61 480.92 1014.67 480.92S1042.42 472.03 1067.75 472.03S1094.91 483.24 1120.83 483.24S1147.77 468.53 1173.91 468.53S1201.82 486.19 1226.99 486.19S1253.55 478.17 1280.07 478.17S1307.2 475.4 1333.15 475.4S1360.6 471.09 1386.23 471.09S1414.07 484.73 1439.3 484.73S1467.22 473.18 1492.38 473.18S1520.16 482.89 1545.46 482.89L1503 773 L-100 773 Z;M-100 473.62C-71.93 481.07 -72.25 477.24 -46.92 477.24S-19.12 486.63 6.16 486.63S33.72 486.51 59.24 486.51S86.78 486.4 112.32 486.4S139.69 487.88 165.4 487.88S192.05 483.73 218.48 483.73S246.62 485.81 271.56 485.81S299.45 473.76 324.64 473.76S351.3 472.74 377.72 472.74S405.91 483.5 430.79 483.5S458.5 487.91 483.87 487.91S512.24 476.6 536.95 476.6S564.75 476.94 590.03 476.94S617.82 472.55 643.11 472.55S670.82 488.28 696.19 488.28S724.61 471.78 749.27 471.78S777.47 477.62 802.35 477.62S829.44 477.34 855.43 477.34S883.59 482.81 908.51 482.81S936.25 484.22 961.59 484.22S989.72 477.86 1014.67 477.86S1042.48 478.27 1067.75 478.27S1095.38 488.27 1120.83 488.27S1148.85 476.18 1173.91 476.18S1202.26 472.46 1226.99 472.46S1253.68 478.43 1280.07 478.43S1308.5 473.91 1333.15 473.91S1359.75 470.95 1386.23 470.95S1414.58 474.45 1439.3 474.45S1467.01 484.42 1492.38 484.42S1519.91 473.19 1545.46 473.19L1503 773 L-100 773 Z"></animate>
  <animateTransform attributeName="transform" type="translate" dur="22.5s" begin="-2.25s" repeatCount="indefinite" values="0;10;0" calcMode="spline" keySplines="0.3 0 0.7 1;0.3 0 0.7 1"></animateTransform>
</path><path d="M-100 501.82C-72.22 488.78 -72.37 494.89 -45.48 494.89S-16.91 498.66 9.05 498.66S36.87 502.65 63.57 502.65S90.86 502.52 118.1 502.52S145.4 488.78 172.62 488.78S200.12 487.34 227.14 487.34S255.48 502.41 281.67 502.41S309.56 512.28 336.19 512.28S363.78 505.2 390.71 505.2S419.67 497.14 445.24 497.14S472.91 501.52 499.76 501.52S528.21 508.11 554.29 508.11S581.67 506.66 608.81 506.66S637.82 494.88 663.33 494.88S691.04 495.37 717.86 495.37S745.57 501.7 772.38 501.7S799.98 512.21 826.9 512.21S854.93 495 881.43 495S908.86 505.13 935.95 505.13S964.26 503.61 990.48 503.61S1017.96 509.5 1045 509.5S1072.82 504.88 1099.52 504.88S1127.55 511.9 1154.05 511.9S1181.31 501.26 1208.57 501.26S1236.55 502.75 1263.1 502.75S1291.06 498.29 1317.62 498.29S1345.2 488.59 1372.14 488.59S1399.51 491.67 1426.67 491.67S1454.83 510.27 1481.19 510.27S1508.74 512.44 1535.71 512.44L1503 773 L-100 773 Z" fill="#55aefe" stroke-width="0">
  <animate attributeName="d" dur="20s" repeatCount="indefinite" values="M-100 501.82C-72.22 488.78 -72.37 494.89 -45.48 494.89S-16.91 498.66 9.05 498.66S36.87 502.65 63.57 502.65S90.86 502.52 118.1 502.52S145.4 488.78 172.62 488.78S200.12 487.34 227.14 487.34S255.48 502.41 281.67 502.41S309.56 512.28 336.19 512.28S363.78 505.2 390.71 505.2S419.67 497.14 445.24 497.14S472.91 501.52 499.76 501.52S528.21 508.11 554.29 508.11S581.67 506.66 608.81 506.66S637.82 494.88 663.33 494.88S691.04 495.37 717.86 495.37S745.57 501.7 772.38 501.7S799.98 512.21 826.9 512.21S854.93 495 881.43 495S908.86 505.13 935.95 505.13S964.26 503.61 990.48 503.61S1017.96 509.5 1045 509.5S1072.82 504.88 1099.52 504.88S1127.55 511.9 1154.05 511.9S1181.31 501.26 1208.57 501.26S1236.55 502.75 1263.1 502.75S1291.06 498.29 1317.62 498.29S1345.2 488.59 1372.14 488.59S1399.51 491.67 1426.67 491.67S1454.83 510.27 1481.19 510.27S1508.74 512.44 1535.71 512.44L1503 773 L-100 773 Z;M-100 504.99C-71.11 502.29 -72.25 499.58 -45.48 499.58S-16.43 495.52 9.05 495.52S38.23 500.49 63.57 500.49S92.11 491.91 118.1 491.91S146.35 504.21 172.62 504.21S200.86 496.97 227.14 496.97S256.09 501.7 281.67 501.7S309.35 489.76 336.19 489.76S364.81 500.14 390.71 500.14S419.44 498.5 445.24 498.5S473.89 498.46 499.76 498.46S527.58 506.04 554.29 506.04S582.21 495.56 608.81 495.56S637.9 490.86 663.33 490.86S691.81 495.07 717.86 495.07S745.48 493.57 772.38 493.57S800.95 498.62 826.9 498.62S854.78 488.13 881.43 488.13S908.74 511.27 935.95 511.27S963.26 505.65 990.48 505.65S1018.64 505.25 1045 505.25S1072.53 500 1099.52 500S1127.76 507.35 1154.05 507.35S1181.9 497.85 1208.57 497.85S1236.25 505.19 1263.1 505.19S1291.12 494.09 1317.62 494.09S1346.26 498.67 1372.14 498.67S1401.08 499.36 1426.67 499.36S1455.39 505.19 1481.19 505.19S1510.24 496.12 1535.71 496.12L1503 773 L-100 773 Z;M-100 501.82C-72.22 488.78 -72.37 494.89 -45.48 494.89S-16.91 498.66 9.05 498.66S36.87 502.65 63.57 502.65S90.86 502.52 118.1 502.52S145.4 488.78 172.62 488.78S200.12 487.34 227.14 487.34S255.48 502.41 281.67 502.41S309.56 512.28 336.19 512.28S363.78 505.2 390.71 505.2S419.67 497.14 445.24 497.14S472.91 501.52 499.76 501.52S528.21 508.11 554.29 508.11S581.67 506.66 608.81 506.66S637.82 494.88 663.33 494.88S691.04 495.37 717.86 495.37S745.57 501.7 772.38 501.7S799.98 512.21 826.9 512.21S854.93 495 881.43 495S908.86 505.13 935.95 505.13S964.26 503.61 990.48 503.61S1017.96 509.5 1045 509.5S1072.82 504.88 1099.52 504.88S1127.55 511.9 1154.05 511.9S1181.31 501.26 1208.57 501.26S1236.55 502.75 1263.1 502.75S1291.06 498.29 1317.62 498.29S1345.2 488.59 1372.14 488.59S1399.51 491.67 1426.67 491.67S1454.83 510.27 1481.19 510.27S1508.74 512.44 1535.71 512.44L1503 773 L-100 773 Z"></animate>
  <animateTransform attributeName="transform" type="translate" dur="20s" begin="-4s" repeatCount="indefinite" values="0;10;0" calcMode="spline" keySplines="0.3 0 0.7 1;0.3 0 0.7 1"></animateTransform>
</path><path d="M-100 509.32C-70.69 516.03 -70.51 508.5 -43.95 508.5S-14.13 516.9 12.1 516.9S41.47 533.21 68.15 533.21S97.22 511.84 124.2 511.84S153.37 527.3 180.24 527.3S209.84 507.6 236.29 507.6S265.8 535.96 292.34 535.96S322.03 520.45 348.39 520.45S377.68 522.38 404.44 522.38S434.3 525.88 460.49 525.88S489.67 524.97 516.54 524.97S545.7 523.34 572.59 523.34S601.19 533.77 628.64 533.77S657.28 510.15 684.69 510.15S712.95 531.4 740.73 531.4S769.53 525.59 796.78 525.59S825.37 524.61 852.83 524.61S882.6 517.34 908.88 517.34S938.19 521.7 964.93 521.7S994.45 528.2 1020.98 528.2S1049.6 508.32 1077.03 508.32S1105.2 515.04 1133.08 515.04S1162.21 518.75 1189.13 518.75S1217.25 507.12 1245.17 507.12S1275.04 523.19 1301.22 523.19S1330.2 521.08 1357.27 521.08S1385.47 534.7 1413.32 534.7S1442.77 507.98 1469.37 507.98S1497.83 513.63 1525.42 513.63L1503 773 L-100 773 Z" fill="#6bb7fd" stroke-width="0">
  <animate attributeName="d" dur="17.5s" repeatCount="indefinite" values="M-100 509.32C-70.69 516.03 -70.51 508.5 -43.95 508.5S-14.13 516.9 12.1 516.9S41.47 533.21 68.15 533.21S97.22 511.84 124.2 511.84S153.37 527.3 180.24 527.3S209.84 507.6 236.29 507.6S265.8 535.96 292.34 535.96S322.03 520.45 348.39 520.45S377.68 522.38 404.44 522.38S434.3 525.88 460.49 525.88S489.67 524.97 516.54 524.97S545.7 523.34 572.59 523.34S601.19 533.77 628.64 533.77S657.28 510.15 684.69 510.15S712.95 531.4 740.73 531.4S769.53 525.59 796.78 525.59S825.37 524.61 852.83 524.61S882.6 517.34 908.88 517.34S938.19 521.7 964.93 521.7S994.45 528.2 1020.98 528.2S1049.6 508.32 1077.03 508.32S1105.2 515.04 1133.08 515.04S1162.21 518.75 1189.13 518.75S1217.25 507.12 1245.17 507.12S1275.04 523.19 1301.22 523.19S1330.2 521.08 1357.27 521.08S1385.47 534.7 1413.32 534.7S1442.77 507.98 1469.37 507.98S1497.83 513.63 1525.42 513.63L1503 773 L-100 773 Z;M-100 527.8C-71.41 536.46 -71.34 531.52 -43.95 531.52S-15.55 522.99 12.1 522.99S40.88 530.86 68.15 530.86S97.8 517.77 124.2 517.77S153.47 521.13 180.24 521.13S208.56 524.03 236.29 524.03S265.55 536.28 292.34 536.28S321.39 507.28 348.39 507.28S376.92 523.15 404.44 523.15S433.6 516.84 460.49 516.84S490.18 512.3 516.54 512.3S545.94 511.04 572.59 511.04S601.12 523.34 628.64 523.34S657.85 507.98 684.69 507.98S713.66 527.8 740.73 527.8S769.68 533.17 796.78 533.17S826.21 517.95 852.83 517.95S881.49 521.97 908.88 521.97S937.06 523.65 964.93 523.65S994.15 523.92 1020.98 523.92S1050.67 524.05 1077.03 524.05S1106.31 514.69 1133.08 514.69S1161.27 537.15 1189.13 537.15S1218.48 506.83 1245.17 506.83S1274.73 536.49 1301.22 536.49S1331.17 507.6 1357.27 507.6S1386.39 527.75 1413.32 527.75S1442.76 525.61 1469.37 525.61S1497.44 520.31 1525.42 520.31L1503 773 L-100 773 Z;M-100 509.32C-70.69 516.03 -70.51 508.5 -43.95 508.5S-14.13 516.9 12.1 516.9S41.47 533.21 68.15 533.21S97.22 511.84 124.2 511.84S153.37 527.3 180.24 527.3S209.84 507.6 236.29 507.6S265.8 535.96 292.34 535.96S322.03 520.45 348.39 520.45S377.68 522.38 404.44 522.38S434.3 525.88 460.49 525.88S489.67 524.97 516.54 524.97S545.7 523.34 572.59 523.34S601.19 533.77 628.64 533.77S657.28 510.15 684.69 510.15S712.95 531.4 740.73 531.4S769.53 525.59 796.78 525.59S825.37 524.61 852.83 524.61S882.6 517.34 908.88 517.34S938.19 521.7 964.93 521.7S994.45 528.2 1020.98 528.2S1049.6 508.32 1077.03 508.32S1105.2 515.04 1133.08 515.04S1162.21 518.75 1189.13 518.75S1217.25 507.12 1245.17 507.12S1275.04 523.19 1301.22 523.19S1330.2 521.08 1357.27 521.08S1385.47 534.7 1413.32 534.7S1442.77 507.98 1469.37 507.98S1497.83 513.63 1525.42 513.63L1503 773 L-100 773 Z"></animate>
  <animateTransform attributeName="transform" type="translate" dur="17.5s" begin="-5.25s" repeatCount="indefinite" values="0;10;0" calcMode="spline" keySplines="0.3 0 0.7 1;0.3 0 0.7 1"></animateTransform>
</path><path d="M-100 530.68C-69.47 536.05 -70.22 553.89 -42.34 553.89S-11.84 532.08 15.32 532.08S44.54 546.41 72.99 546.41S101.88 529.63 130.65 529.63S160.92 560.22 188.31 560.22S217.83 542.86 245.97 542.86S276 544.66 303.63 544.66S333.52 537.99 361.29 537.99S391.34 549.3 418.96 549.3S448.76 533.22 476.62 533.22S506.04 554.32 534.28 554.32S564.48 537.88 591.94 537.88S621.23 535.47 649.6 535.47S679.85 527.1 707.27 527.1S736.57 551.39 764.93 551.39S794.53 543.64 822.59 543.64S852.43 544.56 880.25 544.56S910.17 533.37 937.91 533.37S967.1 545.89 995.58 545.89S1025.28 531.11 1053.24 531.11S1083.35 549.01 1110.9 549.01S1141.18 539.04 1168.56 539.04S1197.82 542.27 1226.22 542.27S1256.69 540.74 1283.88 540.74S1314.2 557.06 1341.55 557.06S1371.13 539.03 1399.21 539.03S1429.54 554.06 1456.87 554.06S1486.92 544.54 1514.53 544.54L1503 773 L-100 773 Z" fill="#7fc0fd" stroke-width="0">
  <animate attributeName="d" dur="15s" repeatCount="indefinite" values="M-100 530.68C-69.47 536.05 -70.22 553.89 -42.34 553.89S-11.84 532.08 15.32 532.08S44.54 546.41 72.99 546.41S101.88 529.63 130.65 529.63S160.92 560.22 188.31 560.22S217.83 542.86 245.97 542.86S276 544.66 303.63 544.66S333.52 537.99 361.29 537.99S391.34 549.3 418.96 549.3S448.76 533.22 476.62 533.22S506.04 554.32 534.28 554.32S564.48 537.88 591.94 537.88S621.23 535.47 649.6 535.47S679.85 527.1 707.27 527.1S736.57 551.39 764.93 551.39S794.53 543.64 822.59 543.64S852.43 544.56 880.25 544.56S910.17 533.37 937.91 533.37S967.1 545.89 995.58 545.89S1025.28 531.11 1053.24 531.11S1083.35 549.01 1110.9 549.01S1141.18 539.04 1168.56 539.04S1197.82 542.27 1226.22 542.27S1256.69 540.74 1283.88 540.74S1314.2 557.06 1341.55 557.06S1371.13 539.03 1399.21 539.03S1429.54 554.06 1456.87 554.06S1486.92 544.54 1514.53 544.54L1503 773 L-100 773 Z;M-100 530.03C-70.49 536.93 -69.97 550.58 -42.34 550.58S-11.97 535.5 15.32 535.5S44.2 556.62 72.99 556.62S102.72 554.9 130.65 554.9S161.23 549.23 188.31 549.23S218.05 545.52 245.97 545.52S275.53 542.13 303.63 542.13S334.25 537.68 361.29 537.68S391.25 556.22 418.96 556.22S449.64 544.2 476.62 544.2S507.37 543.53 534.28 543.53S564.7 525.9 591.94 525.9S622 557.97 649.6 557.97S678.62 536.66 707.27 536.66S736.83 554.38 764.93 554.38S795.46 538.69 822.59 538.69S851.62 550.82 880.25 550.82S909.48 528.85 937.91 528.85S967.28 548.62 995.58 548.62S1025.16 526.97 1053.24 526.97S1082.34 545.61 1110.9 545.61S1141.44 544.4 1168.56 544.4S1198.94 545.13 1226.22 545.13S1256.46 526.2 1283.88 526.2S1312.88 541.4 1341.55 541.4S1370.85 532.13 1399.21 532.13S1428.94 549.84 1456.87 549.84S1486.09 539.64 1514.53 539.64L1503 773 L-100 773 Z;M-100 530.68C-69.47 536.05 -70.22 553.89 -42.34 553.89S-11.84 532.08 15.32 532.08S44.54 546.41 72.99 546.41S101.88 529.63 130.65 529.63S160.92 560.22 188.31 560.22S217.83 542.86 245.97 542.86S276 544.66 303.63 544.66S333.52 537.99 361.29 537.99S391.34 549.3 418.96 549.3S448.76 533.22 476.62 533.22S506.04 554.32 534.28 554.32S564.48 537.88 591.94 537.88S621.23 535.47 649.6 535.47S679.85 527.1 707.27 527.1S736.57 551.39 764.93 551.39S794.53 543.64 822.59 543.64S852.43 544.56 880.25 544.56S910.17 533.37 937.91 533.37S967.1 545.89 995.58 545.89S1025.28 531.11 1053.24 531.11S1083.35 549.01 1110.9 549.01S1141.18 539.04 1168.56 539.04S1197.82 542.27 1226.22 542.27S1256.69 540.74 1283.88 540.74S1314.2 557.06 1341.55 557.06S1371.13 539.03 1399.21 539.03S1429.54 554.06 1456.87 554.06S1486.92 544.54 1514.53 544.54L1503 773 L-100 773 Z"></animate>
  <animateTransform attributeName="transform" type="translate" dur="15s" begin="-6s" repeatCount="indefinite" values="0;10;0" calcMode="spline" keySplines="0.3 0 0.7 1;0.3 0 0.7 1"></animateTransform>
</path><path d="M-100 549.43C-69.42 553.19 -69.21 566.55 -40.63 566.55S-9.61 559.88 18.74 559.88S48.83 578.25 78.11 578.25S109.28 545.3 137.48 545.3S168.74 577.14 196.85 577.14S227.13 564.18 256.22 564.18S287.34 575.3 315.59 575.3S346.47 550.23 374.96 550.23S406.03 570.7 434.33 570.7S464.23 559.28 493.7 559.28S525.01 570.79 553.07 570.79S584.13 552.54 612.44 552.54S642.51 565.78 671.81 565.78S702.5 547.66 731.19 547.66S762.73 574.16 790.56 574.16S821.75 557.97 849.93 557.97S880.4 579.06 909.3 579.06S939.16 557.53 968.67 557.53S998.96 581.15 1028.04 581.15S1058.24 574.41 1087.41 574.41S1118.8 552.42 1146.78 552.42S1176.86 548.69 1206.15 548.69S1235.95 572.89 1265.52 572.89S1295.4 553.39 1324.89 553.39S1354.59 565.27 1384.26 565.27S1414.11 559.49 1443.63 559.49S1474.18 569.77 1503 569.77S1534.6 558.59 1562.37 558.59L1503 773 L-100 773 Z" fill="#92c9fc" stroke-width="0">
  <animate attributeName="d" dur="12.5s" repeatCount="indefinite" values="M-100 549.43C-69.42 553.19 -69.21 566.55 -40.63 566.55S-9.61 559.88 18.74 559.88S48.83 578.25 78.11 578.25S109.28 545.3 137.48 545.3S168.74 577.14 196.85 577.14S227.13 564.18 256.22 564.18S287.34 575.3 315.59 575.3S346.47 550.23 374.96 550.23S406.03 570.7 434.33 570.7S464.23 559.28 493.7 559.28S525.01 570.79 553.07 570.79S584.13 552.54 612.44 552.54S642.51 565.78 671.81 565.78S702.5 547.66 731.19 547.66S762.73 574.16 790.56 574.16S821.75 557.97 849.93 557.97S880.4 579.06 909.3 579.06S939.16 557.53 968.67 557.53S998.96 581.15 1028.04 581.15S1058.24 574.41 1087.41 574.41S1118.8 552.42 1146.78 552.42S1176.86 548.69 1206.15 548.69S1235.95 572.89 1265.52 572.89S1295.4 553.39 1324.89 553.39S1354.59 565.27 1384.26 565.27S1414.11 559.49 1443.63 559.49S1474.18 569.77 1503 569.77S1534.6 558.59 1562.37 558.59L1503 773 L-100 773 Z;M-100 558.01C-69.1 553.12 -69.27 574.95 -40.63 574.95S-10.13 561.7 18.74 561.7S50.13 579.16 78.11 579.16S109.34 555.77 137.48 555.77S169.04 576.99 196.85 576.99S228.39 554.58 256.22 554.58S286.28 573.61 315.59 573.61S345.52 546.94 374.96 546.94S405.79 561.76 434.33 561.76S465.77 552.12 493.7 552.12S524.46 581.17 553.07 581.17S583.48 553.66 612.44 553.66S643.33 570.26 671.81 570.26S702.14 562.82 731.19 562.82S761.45 567.1 790.56 567.1S821.46 562.13 849.93 562.13S879.82 568.54 909.3 568.54S940.28 551.64 968.67 551.64S999.04 582.37 1028.04 582.37S1059.21 550.62 1087.41 550.62S1118.85 566.05 1146.78 566.05S1178.01 554.78 1206.15 554.78S1236.23 545.75 1265.52 545.75S1296.83 555.98 1324.89 555.98S1355.44 582.6 1384.26 582.6S1415.28 560.3 1443.63 560.3S1474.78 581.42 1503 581.42S1534.54 560.38 1562.37 560.38L1503 773 L-100 773 Z;M-100 549.43C-69.42 553.19 -69.21 566.55 -40.63 566.55S-9.61 559.88 18.74 559.88S48.83 578.25 78.11 578.25S109.28 545.3 137.48 545.3S168.74 577.14 196.85 577.14S227.13 564.18 256.22 564.18S287.34 575.3 315.59 575.3S346.47 550.23 374.96 550.23S406.03 570.7 434.33 570.7S464.23 559.28 493.7 559.28S525.01 570.79 553.07 570.79S584.13 552.54 612.44 552.54S642.51 565.78 671.81 565.78S702.5 547.66 731.19 547.66S762.73 574.16 790.56 574.16S821.75 557.97 849.93 557.97S880.4 579.06 909.3 579.06S939.16 557.53 968.67 557.53S998.96 581.15 1028.04 581.15S1058.24 574.41 1087.41 574.41S1118.8 552.42 1146.78 552.42S1176.86 548.69 1206.15 548.69S1235.95 572.89 1265.52 572.89S1295.4 553.39 1324.89 553.39S1354.59 565.27 1384.26 565.27S1414.11 559.49 1443.63 559.49S1474.18 569.77 1503 569.77S1534.6 558.59 1562.37 558.59L1503 773 L-100 773 Z"></animate>
  <animateTransform attributeName="transform" type="translate" dur="12.5s" begin="-6.25s" repeatCount="indefinite" values="0;10;0" calcMode="spline" keySplines="0.3 0 0.7 1;0.3 0 0.7 1"></animateTransform>
</path><path d="M-100 582.02C-68.74 574.92 -68.65 592.67 -38.82 592.67S-7.34 581.31 22.37 581.31S54.61 589.91 83.55 589.91S114.19 581.48 144.73 581.48S175.44 590.99 205.92 590.99S236.87 589.03 267.1 589.03S298.45 605.21 328.28 605.21S359.05 565.22 389.47 565.22S420.36 587.85 450.65 587.85S481.96 571.61 511.83 571.61S544.19 595.1 573.02 595.1S604.98 580.4 634.2 580.4S665.59 592.65 695.38 592.65S727.35 572.05 756.56 572.05S787.83 598.87 817.75 598.87S848.78 594.78 878.93 594.78S909.93 579.08 940.11 579.08S972.11 573.37 1001.3 573.37S1033.38 579.08 1062.48 579.08S1093.89 570.56 1123.66 570.56S1156.15 591.57 1184.85 591.57S1216.37 570.6 1246.03 570.6S1277.73 593.95 1307.21 593.95S1338.57 567.62 1368.4 567.62S1399.54 604.3 1429.58 604.3S1461.94 569.57 1490.76 569.57S1523.2 591.64 1551.95 591.64L1503 773 L-100 773 Z" fill="#a4d2fc" stroke-width="0">
  <animate attributeName="d" dur="10s" repeatCount="indefinite" values="M-100 582.02C-68.74 574.92 -68.65 592.67 -38.82 592.67S-7.34 581.31 22.37 581.31S54.61 589.91 83.55 589.91S114.19 581.48 144.73 581.48S175.44 590.99 205.92 590.99S236.87 589.03 267.1 589.03S298.45 605.21 328.28 605.21S359.05 565.22 389.47 565.22S420.36 587.85 450.65 587.85S481.96 571.61 511.83 571.61S544.19 595.1 573.02 595.1S604.98 580.4 634.2 580.4S665.59 592.65 695.38 592.65S727.35 572.05 756.56 572.05S787.83 598.87 817.75 598.87S848.78 594.78 878.93 594.78S909.93 579.08 940.11 579.08S972.11 573.37 1001.3 573.37S1033.38 579.08 1062.48 579.08S1093.89 570.56 1123.66 570.56S1156.15 591.57 1184.85 591.57S1216.37 570.6 1246.03 570.6S1277.73 593.95 1307.21 593.95S1338.57 567.62 1368.4 567.62S1399.54 604.3 1429.58 604.3S1461.94 569.57 1490.76 569.57S1523.2 591.64 1551.95 591.64L1503 773 L-100 773 Z;M-100 569.63C-67.95 576.19 -69.2 594 -38.82 594S-7.67 579.49 22.37 579.49S54.19 604.14 83.55 604.14S115.9 579 144.73 579S175.8 593.63 205.92 593.63S236.54 570.91 267.1 570.91S299.23 599.89 328.28 599.89S360.16 570.51 389.47 570.51S420.8 572.77 450.65 572.77S482.93 568.84 511.83 568.84S543.02 601.61 573.02 601.61S604.37 578.78 634.2 578.78S665.99 599 695.38 599S727.2 570.41 756.56 570.41S788.72 593.29 817.75 593.29S849.25 564.81 878.93 564.81S910.67 606.44 940.11 606.44S970.95 582.22 1001.3 582.22S1032.89 570.14 1062.48 570.14S1093.37 573.09 1123.66 573.09S1154.93 604.56 1184.85 604.56S1216.71 577.74 1246.03 577.74S1276.74 595.82 1307.21 595.82S1338.37 564.43 1368.4 564.43S1400.27 596.12 1429.58 596.12S1461.26 576.26 1490.76 576.26S1522.71 597.61 1551.95 597.61L1503 773 L-100 773 Z;M-100 582.02C-68.74 574.92 -68.65 592.67 -38.82 592.67S-7.34 581.31 22.37 581.31S54.61 589.91 83.55 589.91S114.19 581.48 144.73 581.48S175.44 590.99 205.92 590.99S236.87 589.03 267.1 589.03S298.45 605.21 328.28 605.21S359.05 565.22 389.47 565.22S420.36 587.85 450.65 587.85S481.96 571.61 511.83 571.61S544.19 595.1 573.02 595.1S604.98 580.4 634.2 580.4S665.59 592.65 695.38 592.65S727.35 572.05 756.56 572.05S787.83 598.87 817.75 598.87S848.78 594.78 878.93 594.78S909.93 579.08 940.11 579.08S972.11 573.37 1001.3 573.37S1033.38 579.08 1062.48 579.08S1093.89 570.56 1123.66 570.56S1156.15 591.57 1184.85 591.57S1216.37 570.6 1246.03 570.6S1277.73 593.95 1307.21 593.95S1338.57 567.62 1368.4 567.62S1399.54 604.3 1429.58 604.3S1461.94 569.57 1490.76 569.57S1523.2 591.64 1551.95 591.64L1503 773 L-100 773 Z"></animate>
  <animateTransform attributeName="transform" type="translate" dur="10s" begin="-6s" repeatCount="indefinite" values="0;10;0" calcMode="spline" keySplines="0.3 0 0.7 1;0.3 0 0.7 1"></animateTransform>
</path><path d="M-100 594.51C-66.91 587.32 -68.27 618.91 -36.89 618.91S-5.2 602.74 26.22 602.74S58.63 624.28 89.33 624.28S121.81 595.97 152.44 595.97S184.08 627.88 215.55 627.88S247.14 585.59 278.66 585.59S311.57 598.15 341.77 598.15S373.81 594.51 404.88 594.51S438.28 597.83 467.99 597.83S501 585.6 531.1 585.6S563.05 616.48 594.21 616.48S626.74 622.28 657.32 622.28S690.17 627.81 720.43 627.81S753.78 587.51 783.54 587.51S815.24 619.29 846.65 619.29S878.5 589.92 909.76 589.92S942.49 617.83 972.87 617.83S1005.36 602.73 1035.98 602.73S1068.22 628.28 1099.09 628.28S1131.42 586.06 1162.2 586.06S1194.02 626.91 1225.31 626.91S1256.96 599.96 1288.43 599.96S1320.54 624.73 1351.54 624.73S1383.69 593.47 1414.65 593.47S1447.43 614.6 1477.76 614.6S1510.13 586.55 1540.87 586.55L1503 773 L-100 773 Z" fill="#b6dbfb" stroke-width="0">
  <animate attributeName="d" dur="7.5s" repeatCount="indefinite" values="M-100 594.51C-66.91 587.32 -68.27 618.91 -36.89 618.91S-5.2 602.74 26.22 602.74S58.63 624.28 89.33 624.28S121.81 595.97 152.44 595.97S184.08 627.88 215.55 627.88S247.14 585.59 278.66 585.59S311.57 598.15 341.77 598.15S373.81 594.51 404.88 594.51S438.28 597.83 467.99 597.83S501 585.6 531.1 585.6S563.05 616.48 594.21 616.48S626.74 622.28 657.32 622.28S690.17 627.81 720.43 627.81S753.78 587.51 783.54 587.51S815.24 619.29 846.65 619.29S878.5 589.92 909.76 589.92S942.49 617.83 972.87 617.83S1005.36 602.73 1035.98 602.73S1068.22 628.28 1099.09 628.28S1131.42 586.06 1162.2 586.06S1194.02 626.91 1225.31 626.91S1256.96 599.96 1288.43 599.96S1320.54 624.73 1351.54 624.73S1383.69 593.47 1414.65 593.47S1447.43 614.6 1477.76 614.6S1510.13 586.55 1540.87 586.55L1503 773 L-100 773 Z;M-100 597.46C-67.71 589.52 -67.76 591.35 -36.89 591.35S-4.81 585.41 26.22 585.41S58.54 624.62 89.33 624.62S121.74 627.83 152.44 627.83S184.46 612.73 215.55 612.73S248.44 593.79 278.66 593.79S310.52 597.22 341.77 597.22S374.43 591.76 404.88 591.76S438 622.14 467.99 622.14S501.4 596.91 531.1 596.91S563.87 620.78 594.21 620.78S627.28 618.53 657.32 618.53S689.6 624.93 720.43 624.93S753.73 599.18 783.54 599.18S816 626.13 846.65 626.13S879.63 585.05 909.76 585.05S942.4 591.06 972.87 591.06S1004.85 591.8 1035.98 591.8S1068.46 624.08 1099.09 624.08S1132.19 596.04 1162.2 596.04S1194.21 615.43 1225.31 615.43S1257.56 598.92 1288.43 598.92S1321.64 619.27 1351.54 619.27S1383.63 598.79 1414.65 598.79S1447.97 619.18 1477.76 619.18S1511.2 595.31 1540.87 595.31L1503 773 L-100 773 Z;M-100 594.51C-66.91 587.32 -68.27 618.91 -36.89 618.91S-5.2 602.74 26.22 602.74S58.63 624.28 89.33 624.28S121.81 595.97 152.44 595.97S184.08 627.88 215.55 627.88S247.14 585.59 278.66 585.59S311.57 598.15 341.77 598.15S373.81 594.51 404.88 594.51S438.28 597.83 467.99 597.83S501 585.6 531.1 585.6S563.05 616.48 594.21 616.48S626.74 622.28 657.32 622.28S690.17 627.81 720.43 627.81S753.78 587.51 783.54 587.51S815.24 619.29 846.65 619.29S878.5 589.92 909.76 589.92S942.49 617.83 972.87 617.83S1005.36 602.73 1035.98 602.73S1068.22 628.28 1099.09 628.28S1131.42 586.06 1162.2 586.06S1194.02 626.91 1225.31 626.91S1256.96 599.96 1288.43 599.96S1320.54 624.73 1351.54 624.73S1383.69 593.47 1414.65 593.47S1447.43 614.6 1477.76 614.6S1510.13 586.55 1540.87 586.55L1503 773 L-100 773 Z"></animate>
  <animateTransform attributeName="transform" type="translate" dur="7.5s" begin="-5.25s" repeatCount="indefinite" values="0;10;0" calcMode="spline" keySplines="0.3 0 0.7 1;0.3 0 0.7 1"></animateTransform>
</path><path d="M-100 614.89C-65.49 606.72 -66.63 646.3 -34.84 646.3S-1.77 617.61 30.33 617.61S63.17 637.31 95.49 637.31S128.09 620.17 160.65 620.17S193.4 635.32 225.81 635.32S259.09 612.99 290.98 612.99S324.21 614.79 356.14 614.79S388.99 606.21 421.3 606.21S453.96 647.16 486.46 647.16S520.53 605.35 551.63 605.35S584.72 649.32 616.79 649.32S650.49 606.57 681.95 606.57S715.2 637.94 747.11 637.94S781.29 606.37 812.28 606.37S845.9 616.87 877.44 616.87S911.39 615.48 942.6 615.48S976.53 635.33 1007.76 635.33S1041.39 611.58 1072.93 611.58S1106.79 641.86 1138.09 641.86S1170.95 610.56 1203.25 610.56S1236.95 637.98 1268.41 637.98S1301.39 606.66 1333.58 606.66S1366.91 638.61 1398.74 638.61S1432.01 616.41 1463.9 616.41S1496.59 635.73 1529.07 635.73L1503 773 L-100 773 Z" fill="#c8e4fb" stroke-width="0">
  <animate attributeName="d" dur="5s" repeatCount="indefinite" values="M-100 614.89C-65.49 606.72 -66.63 646.3 -34.84 646.3S-1.77 617.61 30.33 617.61S63.17 637.31 95.49 637.31S128.09 620.17 160.65 620.17S193.4 635.32 225.81 635.32S259.09 612.99 290.98 612.99S324.21 614.79 356.14 614.79S388.99 606.21 421.3 606.21S453.96 647.16 486.46 647.16S520.53 605.35 551.63 605.35S584.72 649.32 616.79 649.32S650.49 606.57 681.95 606.57S715.2 637.94 747.11 637.94S781.29 606.37 812.28 606.37S845.9 616.87 877.44 616.87S911.39 615.48 942.6 615.48S976.53 635.33 1007.76 635.33S1041.39 611.58 1072.93 611.58S1106.79 641.86 1138.09 641.86S1170.95 610.56 1203.25 610.56S1236.95 637.98 1268.41 637.98S1301.39 606.66 1333.58 606.66S1366.91 638.61 1398.74 638.61S1432.01 616.41 1463.9 616.41S1496.59 635.73 1529.07 635.73L1503 773 L-100 773 Z;M-100 618.32C-65.71 615.63 -65.49 650.03 -34.84 650.03S-1.87 606.37 30.33 606.37S64.44 620.81 95.49 620.81S128.97 604.19 160.65 604.19S194.05 640.91 225.81 640.91S258.66 604.35 290.98 604.35S324.63 634.7 356.14 634.7S390.61 604.21 421.3 604.21S455.03 641.87 486.46 641.87S519.82 604.82 551.63 604.82S584.84 653.04 616.79 653.04S650.36 614.57 681.95 614.57S716.37 613.06 747.11 613.06S780.73 608.27 812.28 608.27S846.59 651.88 877.44 651.88S910.49 603.17 942.6 603.17S976.77 646.08 1007.76 646.08S1041.52 614.5 1072.93 614.5S1105.99 618.35 1138.09 618.35S1170.82 609.11 1203.25 609.11S1237.29 634.93 1268.41 634.93S1301.76 609.4 1333.58 609.4S1366.98 635.38 1398.74 635.38S1431.61 619.1 1463.9 619.1S1496.68 642.65 1529.07 642.65L1503 773 L-100 773 Z;M-100 614.89C-65.49 606.72 -66.63 646.3 -34.84 646.3S-1.77 617.61 30.33 617.61S63.17 637.31 95.49 637.31S128.09 620.17 160.65 620.17S193.4 635.32 225.81 635.32S259.09 612.99 290.98 612.99S324.21 614.79 356.14 614.79S388.99 606.21 421.3 606.21S453.96 647.16 486.46 647.16S520.53 605.35 551.63 605.35S584.72 649.32 616.79 649.32S650.49 606.57 681.95 606.57S715.2 637.94 747.11 637.94S781.29 606.37 812.28 606.37S845.9 616.87 877.44 616.87S911.39 615.48 942.6 615.48S976.53 635.33 1007.76 635.33S1041.39 611.58 1072.93 611.58S1106.79 641.86 1138.09 641.86S1170.95 610.56 1203.25 610.56S1236.95 637.98 1268.41 637.98S1301.39 606.66 1333.58 606.66S1366.91 638.61 1398.74 638.61S1432.01 616.41 1463.9 616.41S1496.59 635.73 1529.07 635.73L1503 773 L-100 773 Z"></animate>
  <animateTransform attributeName="transform" type="translate" dur="5s" begin="-4s" repeatCount="indefinite" values="0;10;0" calcMode="spline" keySplines="0.3 0 0.7 1;0.3 0 0.7 1"></animateTransform>
</path><path d="M-100 625.4C-64.69 639.62 -65.46 657.13 -32.65 657.13S2.16 641.23 34.71 641.23S69.35 661.59 102.06 661.59S137.35 666.08 169.41 666.08S203.71 668.23 236.76 668.23S271.87 624.41 304.12 624.41S338.48 669.38 371.47 669.38S405.16 639.9 438.82 639.9S472.97 668.58 506.18 668.58S540.16 626.27 573.53 626.27S608.72 674.16 640.88 674.16S675.78 638.86 708.24 638.86S743.37 663.05 775.59 663.05S810.67 635.25 842.94 635.25S876.7 636.12 910.29 636.12S943.99 641.5 977.65 641.5S1012.54 658.2 1045 658.2S1079.08 627.55 1112.35 627.55S1147.25 675.89 1179.71 675.89S1213.87 628.31 1247.06 628.31S1281.36 661.65 1314.41 661.65S1349.62 627.43 1381.76 627.43S1416.06 674.43 1449.12 674.43S1483.49 634.88 1516.47 634.88L1503 773 L-100 773 Z" fill="#dbedfb" stroke-width="0">
  <animate attributeName="d" dur="2.5s" repeatCount="indefinite" values="M-100 625.4C-64.69 639.62 -65.46 657.13 -32.65 657.13S2.16 641.23 34.71 641.23S69.35 661.59 102.06 661.59S137.35 666.08 169.41 666.08S203.71 668.23 236.76 668.23S271.87 624.41 304.12 624.41S338.48 669.38 371.47 669.38S405.16 639.9 438.82 639.9S472.97 668.58 506.18 668.58S540.16 626.27 573.53 626.27S608.72 674.16 640.88 674.16S675.78 638.86 708.24 638.86S743.37 663.05 775.59 663.05S810.67 635.25 842.94 635.25S876.7 636.12 910.29 636.12S943.99 641.5 977.65 641.5S1012.54 658.2 1045 658.2S1079.08 627.55 1112.35 627.55S1147.25 675.89 1179.71 675.89S1213.87 628.31 1247.06 628.31S1281.36 661.65 1314.41 661.65S1349.62 627.43 1381.76 627.43S1416.06 674.43 1449.12 674.43S1483.49 634.88 1516.47 634.88L1503 773 L-100 773 Z;M-100 635.14C-65.74 627.18 -64.41 661.23 -32.65 661.23S1.46 629.55 34.71 629.55S70.11 632.11 102.06 632.11S136.74 627.27 169.41 627.27S204.14 659.17 236.76 659.17S271.49 629.98 304.12 629.98S337.81 673.46 371.47 673.46S406.67 635.76 438.82 635.76S473.92 673.15 506.18 673.15S541.56 637.13 573.53 637.13S607.49 670.34 640.88 670.34S675.37 639.42 708.24 639.42S743.05 666.03 775.59 666.03S810.67 626.47 842.94 626.47S878.13 667.8 910.29 667.8S944.26 631.39 977.65 631.39S1011.94 676.2 1045 676.2S1079.29 623.8 1112.35 623.8S1146.19 667.86 1179.71 667.86S1213.43 629.54 1247.06 629.54S1281.01 660.5 1314.41 660.5S1348.7 635.7 1381.76 635.7S1416.58 667.81 1449.12 667.81S1484.11 672.28 1516.47 672.28L1503 773 L-100 773 Z;M-100 625.4C-64.69 639.62 -65.46 657.13 -32.65 657.13S2.16 641.23 34.71 641.23S69.35 661.59 102.06 661.59S137.35 666.08 169.41 666.08S203.71 668.23 236.76 668.23S271.87 624.41 304.12 624.41S338.48 669.38 371.47 669.38S405.16 639.9 438.82 639.9S472.97 668.58 506.18 668.58S540.16 626.27 573.53 626.27S608.72 674.16 640.88 674.16S675.78 638.86 708.24 638.86S743.37 663.05 775.59 663.05S810.67 635.25 842.94 635.25S876.7 636.12 910.29 636.12S943.99 641.5 977.65 641.5S1012.54 658.2 1045 658.2S1079.08 627.55 1112.35 627.55S1147.25 675.89 1179.71 675.89S1213.87 628.31 1247.06 628.31S1281.36 661.65 1314.41 661.65S1349.62 627.43 1381.76 627.43S1416.06 674.43 1449.12 674.43S1483.49 634.88 1516.47 634.88L1503 773 L-100 773 Z"></animate>
  <animateTransform attributeName="transform" type="translate" dur="2.5s" begin="-2.25s" repeatCount="indefinite" values="0;10;0" calcMode="spline" keySplines="0.3 0 0.7 1;0.3 0 0.7 1"></animateTransform>
</path></g>
</svg>