<?xml version="1.0" encoding="utf-8"?>
<svg xmlns="http://www.w3.org/2000/svg" xmlns:xlink="http://www.w3.org/1999/xlink" style="margin: auto; background: rgb(241, 242, 243); display: block; z-index: 1; position: relative; shape-rendering: auto;" width="1403" height="716" preserveAspectRatio="xMidYMid" viewBox="0 0 1403 716">
<g transform=""><path id="path0" d="M 193.25244929922886 575.4813676246941
c 0 34.549686658871394 -8.453646735681298 9.9238461679737 -18.377492903654996 9.9238461679737
S 156.49746349191886 610.0310542835655 156.49746349191886 575.4813676246941
s 8.453646735681298 -9.9238461679737 18.377492903654996 -9.9238461679737
S 193.25244929922886 540.9316809658228 193.25244929922886 575.4813676246941
z" fill="none" stroke="none"></path>
<circle cx="0" cy="0" r="6.818723429342395" fill="#0099e5">
  <animateMotion begin="-7.163885118621338s" dur="10s" repeatCount="indefinite">
    <mpath xlink:href="#path0"></mpath>
  </animateMotion>
</circle><path id="path1" d="M 1308.6015536737953 78.89443822096351
c 0 27.332905536070168 -6.687838588612912 7.850940951849942 -14.538779540462855 7.850940951849942
S 1279.5239945928695 106.22734375703368 1279.5239945928695 78.89443822096351
s 6.687838588612912 -7.850940951849942 14.538779540462855 -7.850940951849942
S 1308.6015536737953 51.561532684893336 1308.6015536737953 78.89443822096351
z" fill="none" stroke="none"></path>
<circle cx="0" cy="0" r="6.667783033811462" fill="#ff4c4c">
  <animateMotion begin="-1.2708483261250514s" dur="10s" repeatCount="indefinite">
    <mpath xlink:href="#path1"></mpath>
  </animateMotion>
</circle><path id="path2" d="M 687.5229173377613 602.211358189566
c 0 19.79736459526054 -4.84403601798928 5.6864770645961125 -10.530513082585394 5.6864770645961125
S 666.4618911725906 622.0087227848265 666.4618911725906 602.211358189566
s 4.84403601798928 -5.6864770645961125 10.530513082585394 -5.6864770645961125
S 687.5229173377613 582.4139935943055 687.5229173377613 602.211358189566
z" fill="none" stroke="none"></path>
<circle cx="0" cy="0" r="6.789616909817357" fill="#0099e5">
  <animateMotion begin="-6.320573108717746s" dur="10s" repeatCount="indefinite">
    <mpath xlink:href="#path2"></mpath>
  </animateMotion>
</circle><path id="path3" d="M 272.87235310493134 556.4461431601462
c 0 36.294546398597 -8.88058050178437 10.425029284703394 -19.305609786487764 10.425029284703394
S 234.26113353195583 592.7406895587433 234.26113353195583 556.4461431601462
s 8.88058050178437 -10.425029284703394 19.305609786487764 -10.425029284703394
S 272.87235310493134 520.1515967615492 272.87235310493134 556.4461431601462
z" fill="none" stroke="none"></path>
<circle cx="0" cy="0" r="5.808237289147764" fill="#34bf49">
  <animateMotion begin="-4.789442564776625s" dur="10s" repeatCount="indefinite">
    <mpath xlink:href="#path3"></mpath>
  </animateMotion>
</circle><path id="path4" d="M 177.329827559683 436.80818160997455
c 0 23.563191239756247 -5.765461686323336 6.768150675249134 -12.53361236157247 6.768150675249134
S 152.26260283653806 460.3713728497308 152.26260283653806 436.80818160997455
s 5.765461686323336 -6.768150675249134 12.53361236157247 -6.768150675249134
S 177.329827559683 413.2449903702183 177.329827559683 436.80818160997455
z" fill="none" stroke="none"></path>
<circle cx="0" cy="0" r="5.142571670227009" fill="#34bf49">
  <animateMotion begin="-5.729439348851741s" dur="10s" repeatCount="indefinite">
    <mpath xlink:href="#path4"></mpath>
  </animateMotion>
</circle><path id="path5" d="M 1304.3516325371913 152.2428532015713
c 0 20.04382878897325 -4.904341086663667 5.757269971300828 -10.661611057964496 5.757269971300828
S 1283.0284104212622 172.28668199054457 1283.0284104212622 152.2428532015713
s 4.904341086663667 -5.757269971300828 10.661611057964496 -5.757269971300828
S 1304.3516325371913 132.19902441259805 1304.3516325371913 152.2428532015713
z" fill="none" stroke="none"></path>
<circle cx="0" cy="0" r="4.841265054100185" fill="#34bf49">
  <animateMotion begin="-3.2258791253841768s" dur="10s" repeatCount="indefinite">
    <mpath xlink:href="#path5"></mpath>
  </animateMotion>
</circle><path id="path6" d="M 587.1869219038655 196.5511258024504
c 0 19.8611271871674 -4.859637503243087 5.70479185163319 -10.564429354876276 5.70479185163319
S 566.0580631941128 216.4122529896178 566.0580631941128 196.5511258024504
s 4.859637503243087 -5.70479185163319 10.564429354876276 -5.70479185163319
S 587.1869219038655 176.689998615283 587.1869219038655 196.5511258024504
z" fill="none" stroke="none"></path>
<circle cx="0" cy="0" r="7.536309309442036" fill="#0099e5">
  <animateMotion begin="-9.610209297291444s" dur="10s" repeatCount="indefinite">
    <mpath xlink:href="#path6"></mpath>
  </animateMotion>
</circle><path id="path7" d="M 1287.3689201885384 702.8210173261667
c 0 23.036478460133416 -5.636585155139026 6.616860834293641 -12.253445989432667 6.616860834293641
S 1262.8620282096729 725.8574957863001 1262.8620282096729 702.8210173261667
s 5.636585155139026 -6.616860834293641 12.253445989432667 -6.616860834293641
S 1287.3689201885384 679.7845388660334 1287.3689201885384 702.8210173261667
z" fill="none" stroke="none"></path>
<circle cx="0" cy="0" r="7.536202783384067" fill="#ff4c4c">
  <animateMotion begin="-8.932932543464327s" dur="10s" repeatCount="indefinite">
    <mpath xlink:href="#path7"></mpath>
  </animateMotion>
</circle><path id="path8" d="M 1345.8098884348813 378.37518593850444
c 0 37.120431062370656 -9.082658664197075 10.662251475361783 -19.744910139558858 10.662251475361783
S 1306.3200681557635 415.4956170008751 1306.3200681557635 378.37518593850444
s 9.082658664197075 -10.662251475361783 19.744910139558858 -10.662251475361783
S 1345.8098884348813 341.2547548761338 1345.8098884348813 378.37518593850444
z" fill="none" stroke="none"></path>
<circle cx="0" cy="0" r="5.07967478190054" fill="#34bf49">
  <animateMotion begin="-0.5529242547229862s" dur="10s" repeatCount="indefinite">
    <mpath xlink:href="#path8"></mpath>
  </animateMotion>
</circle><path id="path9" d="M 1000.8912549795788 180.28381611813373
c 0 21.905866561268944 -5.359946073501975 6.292110608024058 -11.652056681526034 6.292110608024058
S 977.5871416165268 202.18968267940267 977.5871416165268 180.28381611813373
s 5.359946073501975 -6.292110608024058 11.652056681526034 -6.292110608024058
S 1000.8912549795788 158.3779495568648 1000.8912549795788 180.28381611813373
z" fill="none" stroke="none"></path>
<circle cx="0" cy="0" r="5.679673896751578" fill="#ff4c4c">
  <animateMotion begin="-2.4194344433163306s" dur="10s" repeatCount="indefinite">
    <mpath xlink:href="#path9"></mpath>
  </animateMotion>
</circle><path id="path10" d="M 580.4044280932935 84.1041151571123
c 0 24.65481948193152 -6.032562213664095 7.081703468214373 -13.114265681878468 7.081703468214373
S 554.1758967295366 108.75893463904382 554.1758967295366 84.1041151571123
s 6.032562213664095 -7.081703468214373 13.114265681878468 -7.081703468214373
S 580.4044280932935 59.449295675180785 580.4044280932935 84.1041151571123
z" fill="none" stroke="none"></path>
<circle cx="0" cy="0" r="6.384012795122708" fill="#0099e5">
  <animateMotion begin="-0.15126880659899866s" dur="10s" repeatCount="indefinite">
    <mpath xlink:href="#path10"></mpath>
  </animateMotion>
</circle><path id="path11" d="M 887.0156118161416 634.8792165554463
c 0 34.53669773864278 -8.45046859562536 9.920115307908032 -18.37058390353339 9.920115307908032
S 850.2744440090747 669.4159142940891 850.2744440090747 634.8792165554463
s 8.45046859562536 -9.920115307908032 18.37058390353339 -9.920115307908032
S 887.0156118161416 600.3425188168035 887.0156118161416 634.8792165554463
z" fill="none" stroke="none"></path>
<circle cx="0" cy="0" r="6.4842338480423205" fill="#0099e5">
  <animateMotion begin="-8.435142850115172s" dur="10s" repeatCount="indefinite">
    <mpath xlink:href="#path11"></mpath>
  </animateMotion>
</circle><path id="path12" d="M 1335.034199812424 253.64833929035166
c 0 32.549876994970376 -7.964331605152325 9.34943275387447 -17.313764359026795 9.34943275387447
S 1300.4066710943703 286.198216285322 1300.4066710943703 253.64833929035166
s 7.964331605152325 -9.34943275387447 17.313764359026795 -9.34943275387447
S 1335.034199812424 221.0984622953813 1335.034199812424 253.64833929035166
z" fill="none" stroke="none"></path>
<circle cx="0" cy="0" r="4.775905432915405" fill="#ff4c4c">
  <animateMotion begin="-9.667467309160445s" dur="10s" repeatCount="indefinite">
    <mpath xlink:href="#path12"></mpath>
  </animateMotion>
</circle><path id="path13" d="M 408.4685525857887 522.4890093579437
c 0 31.33010568596571 -7.665876923161822 8.999072909798661 -16.66494983296048 8.999072909798661
S 375.13865291986775 553.8191150439094 375.13865291986775 522.4890093579437
s 7.665876923161822 -8.999072909798661 16.66494983296048 -8.999072909798661
S 408.4685525857887 491.158903671978 408.4685525857887 522.4890093579437
z" fill="none" stroke="none"></path>
<circle cx="0" cy="0" r="5.983887525557218" fill="#ff4c4c">
  <animateMotion begin="-8.428981504527833s" dur="10s" repeatCount="indefinite">
    <mpath xlink:href="#path13"></mpath>
  </animateMotion>
</circle><path id="path14" d="M 573.3790087033722 53.0098179741679
c 0 37.12206326715911 -9.083058033453824 10.662720300141448 -19.745778333595272 10.662720300141448
S 533.8874520361817 90.13188124132702 533.8874520361817 53.0098179741679
s 9.083058033453824 -10.662720300141448 19.745778333595272 -10.662720300141448
S 573.3790087033722 15.887754707008789 573.3790087033722 53.0098179741679
z" fill="none" stroke="none"></path>
<circle cx="0" cy="0" r="6.287435240515723" fill="#34bf49">
  <animateMotion begin="-2.981065779859895s" dur="10s" repeatCount="indefinite">
    <mpath xlink:href="#path14"></mpath>
  </animateMotion>
</circle><path id="path15" d="M 781.7409751995376 93.85179065224312
c 0 27.281733023695274 -6.6753176547339494 7.836242464252899 -14.511560118986848 7.836242464252899
S 752.717854961564 121.13352367593839 752.717854961564 93.85179065224312
s 6.6753176547339494 -7.836242464252899 14.511560118986848 -7.836242464252899
S 781.7409751995376 66.57005762854786 781.7409751995376 93.85179065224312
z" fill="none" stroke="none"></path>
<circle cx="0" cy="0" r="4.421816942224888" fill="#ff4c4c">
  <animateMotion begin="-0.5995293105565369s" dur="10s" repeatCount="indefinite">
    <mpath xlink:href="#path15"></mpath>
  </animateMotion>
</circle><path id="path16" d="M 1385.9213009622097 52.28233293472133
c 0 29.046875192509923 -7.107214142848172 8.343251385082638 -15.45046552793081 8.343251385082638
S 1355.020369906348 81.32920812723125 1355.020369906348 52.28233293472133
s 7.107214142848172 -8.343251385082638 15.45046552793081 -8.343251385082638
S 1385.9213009622097 23.23545774221141 1385.9213009622097 52.28233293472133
z" fill="none" stroke="none"></path>
<circle cx="0" cy="0" r="5.48060500555418" fill="#34bf49">
  <animateMotion begin="-6.118252833113602s" dur="10s" repeatCount="indefinite">
    <mpath xlink:href="#path16"></mpath>
  </animateMotion>
</circle><path id="path17" d="M 1022.9394160668647 519.186661996101
c 0 20.963210089684992 -5.129296085773986 6.0213475789520725 -11.150643664726058 6.0213475789520725
S 1000.6381287374126 540.149872085786 1000.6381287374126 519.186661996101
s 5.129296085773986 -6.0213475789520725 11.150643664726058 -6.0213475789520725
S 1022.9394160668647 498.22345190641596 1022.9394160668647 519.186661996101
z" fill="none" stroke="none"></path>
<circle cx="0" cy="0" r="4.483231242340657" fill="#34bf49">
  <animateMotion begin="-4.835297434747467s" dur="10s" repeatCount="indefinite">
    <mpath xlink:href="#path17"></mpath>
  </animateMotion>
</circle><path id="path18" d="M 372.02663740714104 324.68061585831265
c 0 21.431767988034764 -5.243943231114889 6.155933358265305 -11.399876589380193 6.155933358265305
S 349.22688422838064 346.1123838463474 349.22688422838064 324.68061585831265
s 5.243943231114889 -6.155933358265305 11.399876589380193 -6.155933358265305
S 372.02663740714104 303.24884787027787 372.02663740714104 324.68061585831265
z" fill="none" stroke="none"></path>
<circle cx="0" cy="0" r="5.937082702804436" fill="#34bf49">
  <animateMotion begin="-0.49093275430734495s" dur="10s" repeatCount="indefinite">
    <mpath xlink:href="#path18"></mpath>
  </animateMotion>
</circle><path id="path19" d="M 1074.4075360247498 536.3432550178331
c 0 23.809455332016444 -5.825717794004023 6.838886106004724 -12.664603900008746 6.838886106004724
S 1049.078328224732 560.1527103498496 1049.078328224732 536.3432550178331
s 5.825717794004023 -6.838886106004724 12.664603900008746 -6.838886106004724
S 1074.4075360247498 512.5337996858167 1074.4075360247498 536.3432550178331
z" fill="none" stroke="none"></path>
<circle cx="0" cy="0" r="5.6224336386165765" fill="#34bf49">
  <animateMotion begin="-1.616143192308419s" dur="10s" repeatCount="indefinite">
    <mpath xlink:href="#path19"></mpath>
  </animateMotion>
</circle><path id="path20" d="M 699.1013379356268 487.4132660552867
c 0 29.978183421945005 -7.335087433029096 8.61075481268633 -15.945842245715427 8.61075481268633
S 667.209653444196 517.3914494772317 667.209653444196 487.4132660552867
s 7.335087433029096 -8.61075481268633 15.945842245715427 -8.61075481268633
S 699.1013379356268 457.4350826333417 699.1013379356268 487.4132660552867
z" fill="none" stroke="none"></path>
<circle cx="0" cy="0" r="4.7401584468071025" fill="#34bf49">
  <animateMotion begin="-5.064657125088308s" dur="10s" repeatCount="indefinite">
    <mpath xlink:href="#path20"></mpath>
  </animateMotion>
</circle><path id="path21" d="M 83.2232857371245 127.70527771302383
c 0 29.327173506748405 -7.1757977729278 8.423762603002201 -15.599560375930002 8.423762603002201
S 52.0241649852645 157.03245121977224 52.0241649852645 127.70527771302383
s 7.1757977729278 -8.423762603002201 15.599560375930002 -8.423762603002201
S 83.2232857371245 98.37810420627542 83.2232857371245 127.70527771302383
z" fill="none" stroke="none"></path>
<circle cx="0" cy="0" r="5.318361845623743" fill="#34bf49">
  <animateMotion begin="-8.791380850901573s" dur="10s" repeatCount="indefinite">
    <mpath xlink:href="#path21"></mpath>
  </animateMotion>
</circle><path id="path22" d="M 977.1825973996416 99.32000937085175
c 0 26.21063867438578 -6.413241377775244 7.528587704344853 -13.941829082120096 7.528587704344853
S 949.2989392354015 125.53064804523753 949.2989392354015 99.32000937085175
s 6.413241377775244 -7.528587704344853 13.941829082120096 -7.528587704344853
S 977.1825973996416 73.10937069646597 977.1825973996416 99.32000937085175
z" fill="none" stroke="none"></path>
<circle cx="0" cy="0" r="6.4520429665368315" fill="#34bf49">
  <animateMotion begin="-2.320134051847278s" dur="10s" repeatCount="indefinite">
    <mpath xlink:href="#path22"></mpath>
  </animateMotion>
</circle><path id="path23" d="M 1165.5976040405335 84.44765444411499
c 0 27.317766872829342 -6.684134447607178 7.846592612408428 -14.530727060015607 7.846592612408428
S 1136.5361499205023 111.76542131694433 1136.5361499205023 84.44765444411499
s 6.684134447607178 -7.846592612408428 14.530727060015607 -7.846592612408428
S 1165.5976040405335 57.12988757128565 1165.5976040405335 84.44765444411499
z" fill="none" stroke="none"></path>
<circle cx="0" cy="0" r="4.7738027262110485" fill="#ff4c4c">
  <animateMotion begin="-2.5822109557754502s" dur="10s" repeatCount="indefinite">
    <mpath xlink:href="#path23"></mpath>
  </animateMotion>
</circle><path id="path24" d="M 480.5854883377854 220.87148795384428
c 0 31.26428065604801 -7.649770798820257 8.980165720354217 -16.62993651917447 8.980165720354217
S 447.3256152994365 252.1357686098923 447.3256152994365 220.87148795384428
s 7.649770798820257 -8.980165720354217 16.62993651917447 -8.980165720354217
S 480.5854883377854 189.60720729779626 480.5854883377854 220.87148795384428
z" fill="none" stroke="none"></path>
<circle cx="0" cy="0" r="4.591157534516529" fill="#ff4c4c">
  <animateMotion begin="-0.03362310511515032s" dur="10s" repeatCount="indefinite">
    <mpath xlink:href="#path24"></mpath>
  </animateMotion>
</circle><path id="path25" d="M 1243.7081590779292 217.95424957432883
c 0 21.344474791558603 -5.22258425750902 6.130859780554068 -11.353444038063088 6.130859780554068
S 1221.001271001803 239.29872436588744 1221.001271001803 217.95424957432883
s 5.22258425750902 -6.130859780554068 11.353444038063088 -6.130859780554068
S 1243.7081590779292 196.60977478277022 1243.7081590779292 217.95424957432883
z" fill="none" stroke="none"></path>
<circle cx="0" cy="0" r="7.790234641108746" fill="#ff4c4c">
  <animateMotion begin="-4.902571219173588s" dur="10s" repeatCount="indefinite">
    <mpath xlink:href="#path25"></mpath>
  </animateMotion>
</circle><path id="path26" d="M 537.1806574007728 169.57464336222054
c 0 31.18149232752555 -7.62951408013923 8.956386094076487 -16.585900174215716 8.956386094076487
S 504.0088570523414 200.7561356897461 504.0088570523414 169.57464336222054
s 7.62951408013923 -8.956386094076487 16.585900174215716 -8.956386094076487
S 537.1806574007728 138.393151034695 537.1806574007728 169.57464336222054
z" fill="none" stroke="none"></path>
<circle cx="0" cy="0" r="7.872175537670565" fill="#ff4c4c">
  <animateMotion begin="-3.423371548471621s" dur="10s" repeatCount="indefinite">
    <mpath xlink:href="#path26"></mpath>
  </animateMotion>
</circle><path id="path27" d="M 322.05417971100627 301.90695615092426
c 0 35.72253888812394 -8.740621217306922 10.260729255099431 -19.001350472406354 10.260729255099431
S 284.0514787661936 337.6294950390482 284.0514787661936 301.90695615092426
s 8.740621217306922 -10.260729255099431 19.001350472406354 -10.260729255099431
S 322.05417971100627 266.1844172628003 322.05417971100627 301.90695615092426
z" fill="none" stroke="none"></path>
<circle cx="0" cy="0" r="7.538907902260571" fill="#34bf49">
  <animateMotion begin="-1.6896968626527054s" dur="10s" repeatCount="indefinite">
    <mpath xlink:href="#path27"></mpath>
  </animateMotion>
</circle><path id="path28" d="M 526.2693951544853 562.1157530970098
c 0 37.35588165121936 -9.140268914660055 10.729880899818328 -19.870149814478385 10.729880899818328
S 486.52909552552853 599.4716347482292 486.52909552552853 562.1157530970098
s 9.140268914660055 -10.729880899818328 19.870149814478385 -10.729880899818328
S 526.2693951544853 524.7598714457904 526.2693951544853 562.1157530970098
z" fill="none" stroke="none"></path>
<circle cx="0" cy="0" r="4.928897438120309" fill="#0099e5">
  <animateMotion begin="-0.3938074400711655s" dur="10s" repeatCount="indefinite">
    <mpath xlink:href="#path28"></mpath>
  </animateMotion>
</circle><path id="path29" d="M 1180.0342838335898 690.6281500164114
c 0 31.19065473791489 -7.631755946511089 8.959017850252149 -16.590773796763237 8.959017850252149
S 1146.8527362400635 721.8188047543263 1146.8527362400635 690.6281500164114
s 7.631755946511089 -8.959017850252149 16.590773796763237 -8.959017850252149
S 1180.0342838335898 659.4374952784965 1180.0342838335898 690.6281500164114
z" fill="none" stroke="none"></path>
<circle cx="0" cy="0" r="7.102484241871798" fill="#ff4c4c">
  <animateMotion begin="-9.702234063658723s" dur="10s" repeatCount="indefinite">
    <mpath xlink:href="#path29"></mpath>
  </animateMotion>
</circle></g>
</svg>